#!OML:ASF I:\Actors\actors\Patient Classification 2\Patient 1\Session 1\actor1.ASF
:FULLY-SPECIFIED
:DEGREES
1231
root -1.02731 18.6792 6.3535 -0.464333 -4.01362 -2.55176
lowerback 3.04552 1.26825 0.414698
upperback -2.11499 1.75126 1.0564
thorax -3.9061 0.875254 0.743839
lowerneck -10.2434 -1.42221 -0.51647
upperneck 23.5117 -1.95874 0.239581
head 9.0549 -0.941601 -0.0417287
rclavicle -1.13556e-014 -1.52567e-014
rhumerus -53.2242 -12.6066 -80.6081
rradius 48.7968
rwrist 10.9888
rhand -7.82874 -33.1829
rfingers 7.12502
rthumb 18.0736 -62.3632
lclavicle -1.13556e-014 -1.52567e-014
lhumerus -45.5777 6.85095 86.0332
lradius 39.5505
lwrist -12.4751
lhand -8.2438 -26.0574
lfingers 7.12502
lthumb 17.6742 3.15933
rfemur 0 0 0
rtibia 0
rfoot 0 0
rtoes 0
lfemur -1.18379 -7.52042 -14.9323
ltibia 23.1974
lfoot -26.8951 17.7963
ltoes -54.59
1232
root -1.02422 18.6794 6.3425 -0.475947 -3.95379 -2.55064
lowerback 3.03519 1.27189 0.472329
upperback -2.11764 1.75879 1.05698
thorax -3.90136 0.877461 0.711908
lowerneck -10.1783 -1.40394 -0.474482
upperneck 23.4845 -1.92558 0.175127
head 9.03193 -0.929265 -0.0665053
rclavicle 3.88251e-014 5.56597e-015
rhumerus -52.9826 -12.1752 -80.9748
rradius 49.3697
rwrist 10.9874
rhand -7.13312 -32.656
rfingers 7.12502
rthumb 18.7428 -61.7731
lclavicle 3.88251e-014 5.56597e-015
lhumerus -45.4031 6.83325 86.28
lradius 39.9316
lwrist -12.5078
lhand -8.13929 -26.4644
lfingers 7.12502
lthumb 17.7748 2.7432
rfemur 0 0 0
rtibia 0
rfoot 0 0
rtoes 0
lfemur -1.21653 -7.46395 -14.9186
ltibia 23.1864
lfoot -26.7894 17.7066
ltoes -54.5808
1233
root -1.02104 18.6803 6.33152 -0.508672 -3.86991 -2.50009
lowerback 3.03596 1.28545 0.503085
upperback -2.11986 1.77721 1.02426
thorax -3.90227 0.885311 0.65977
lowerneck -10.1016 -1.40999 -0.532931
upperneck 23.4703 -1.94447 0.268195
head 9.01436 -0.93348 -0.0262195
rclavicle -2.07202e-014 7.50412e-015
rhumerus -52.7386 -11.7766 -81.355
rradius 49.7932
rwrist 10.7201
rhand -4.02167 -34.2569
rfingers 7.12502
rthumb 21.7331 -63.0569
lclavicle -2.07202e-014 7.50412e-015
lhumerus -45.3152 6.25996 86.7848
lradius 40.4552
lwrist -11.9831
lhand -8.18359 -26.5809
lfingers 7.12502
lthumb 17.7322 2.63062
rfemur 0 0 0
rtibia 0
rfoot 0 0
rtoes 0
lfemur -1.23597 -7.45288 -14.9667
ltibia 23.1737
lfoot -26.6946 17.6751
ltoes -54.6399
1234
root -1.01841 18.6817 6.31899 -0.549156 -3.791 -2.41997
lowerback 3.05559 1.31617 0.517448
upperback -2.10454 1.81758 0.986644
thorax -3.89616 0.904455 0.610137
lowerneck -10.0612 -1.44995 -0.596055
upperneck 23.4528 -1.99647 0.305957
head 9.00213 -0.959346 -0.00779058
rclavicle -2.19222e-014 -1.21756e-014
rhumerus -52.466 -11.4835 -81.6523
rradius 50.042
rwrist 10.269
rhand -3.40746 -34.467
rfingers 7.12502
rthumb 22.3229 -63.1975
lclavicle -2.19222e-014 -1.21756e-014
lhumerus -45.1951 5.43122 87.4469
lradius 40.978
lwrist -11.1599
lhand -8.26567 -26.4953
lfingers 7.12502
lthumb 17.6532 2.72332
rfemur 0 0 0
rtibia 0
rfoot 0 0
rtoes 0
lfemur -1.25633 -7.49916 -15.0582
ltibia 23.165
lfoot -26.6345 17.7009
ltoes -54.8106
1235
root -1.0157 18.6832 6.3063 -0.57034 -3.71292 -2.40207
lowerback 3.07205 1.32889 0.583036
upperback -2.09784 1.83783 0.987261
thorax -3.89668 0.912753 0.57246
lowerneck -10.0377 -1.46976 -0.684785
upperneck 23.4532 -2.00943 0.319248
head 8.99913 -0.971646 0.0105867
rclavicle -1.75163e-014 1.2101e-014
rhumerus -52.2188 -11.1695 -81.9371
rradius 50.2662
rwrist 9.65221
rhand -4.36167 -34.1972
rfingers 7.12502
rthumb 21.4066 -63.0347
lclavicle -1.75163e-014 1.2101e-014
lhumerus -45.0308 4.9342 87.9653
lradius 41.3857
lwrist -10.6586
lhand -8.2628 -26.6486
lfingers 7.12502
lthumb 17.656 2.56975
rfemur 0 0 0
rtibia 0
rfoot 0 0
rtoes 0
lfemur -1.29221 -7.53577 -15.0735
ltibia 23.1574
lfoot -26.6153 17.6324
ltoes -54.8483
